<svg xmlns="http://www.w3.org/2000/svg" viewBox="0 0 512 512">
  <defs>
    <linearGradient id="bg" x1="0" y1="0" x2="1" y2="1">
      <stop offset="0" stop-color="#10b981"/>
      <stop offset="1" stop-color="#059669"/>
    </linearGradient>
  </defs>
  <!-- Full-bleed background (maskable safe zone = 80% center) -->
  <rect width="512" height="512" fill="url(#bg)"/>
  <g fill="#ffffff" transform="translate(64 64)">
    <!-- centered icon in 384x384 safe area -->
    <path d="M96 120c0-13.255 10.745-24 24-24h144c13.255 0 24 10.745 24 24v144c0 13.255-10.745 24-24 24H120c-13.255 0-24-10.745-24-24V120zm24-4c-2.209 0-4 1.791-4 4v12h152v-12c0-2.209-1.791-4-4-4H120z" opacity=".25"/>
    <path d="M96 156h192v108c0 13.255-10.745 24-24 24H120c-13.255 0-24-10.745-24-24V156z"/>
    <rect x="224" y="200" width="42" height="30" rx="6" fill="#10b981"/>
    <path d="M117 201h66" stroke="#10b981" stroke-width="12" stroke-linecap="round" fill="none"/>
    <path d="M117 233h45" stroke="#10b981" stroke-width="12" stroke-linecap="round" fill="none"/>
  </g>
</svg>
