<svg xmlns="http://www.w3.org/2000/svg" viewBox="0 0 512 512">
  <defs>
    <linearGradient id="bg" x1="0" y1="0" x2="1" y2="1">
      <stop offset="0" stop-color="#10b981"/>
      <stop offset="1" stop-color="#059669"/>
    </linearGradient>
  </defs>
  <rect width="512" height="512" rx="108" fill="url(#bg)"/>
  <g fill="#ffffff">
    <path d="M128 160c0-17.673 14.327-32 32-32h192c17.673 0 32 14.327 32 32v192c0 17.673-14.327 32-32 32H160c-17.673 0-32-14.327-32-32V160zm32-5c-2.761 0-5 2.239-5 5v16h202v-16c0-2.761-2.239-5-5-5H160z" opacity=".25"/>
    <path d="M128 208h256v144c0 17.673-14.327 32-32 32H160c-17.673 0-32-14.327-32-32V208z"/>
    <rect x="298" y="266" width="56" height="40" rx="8" fill="#10b981"/>
    <path d="M156 268h88" stroke="#10b981" stroke-width="16" stroke-linecap="round" fill="none"/>
    <path d="M156 310h60" stroke="#10b981" stroke-width="16" stroke-linecap="round" fill="none"/>
  </g>
</svg>
